PathFileType	4	(X/Y/Z)	E:\Qualisys_Data\Carbon_Farble_Plate\Data\Amateur_Runner\S2\T2\S2T2V13_c3d.trc
DataRate	CameraRate	NumFrames	NumMarkers	Units	OrigDataRate	OrigDataStartFrame	OrigNumFrames
200.000000	200.000000	4	39	mm	200.000000	203	325
Frame#	Time	LSHO			RSHO			LICST			RICST			LASIS			LHEEL			RASIS			LTROC			RTROC			SACR			LTH1			LSK4			LTH2			LTH3			RHM5			LSK2			LTH4			RTH1			LTOE			RTH2			RTH3			RTH4			LLEP			RLEP			LSK1			LSK3			RSK1			LHM5			RSK2			LFT1			RSK3			RSK4			LLME			RLME			RTOE			RHEEL			RFT1			RFT2			LFT2			
		X1	Y1	Z1	X2	Y2	Z2	X3	Y3	Z3	X4	Y4	Z4	X5	Y5	Z5	X6	Y6	Z6	X7	Y7	Z7	X8	Y8	Z8	X9	Y9	Z9	X10	Y10	Z10	X11	Y11	Z11	X12	Y12	Z12	X13	Y13	Z13	X14	Y14	Z14	X15	Y15	Z15	X16	Y16	Z16	X17	Y17	Z17	X18	Y18	Z18	X19	Y19	Z19	X20	Y20	Z20	X21	Y21	Z21	X22	Y22	Z22	X23	Y23	Z23	X24	Y24	Z24	X25	Y25	Z25	X26	Y26	Z26	X27	Y27	Z27	X28	Y28	Z28	X29	Y29	Z29	X30	Y30	Z30	X31	Y31	Z31	X32	Y32	Z32	X33	Y33	Z33	X34	Y34	Z34	X35	Y35	Z35	X36	Y36	Z36	X37	Y37	Z37	X38	Y38	Z38	X39	Y39	Z39	

204	1.015	842.1646118164062	1470.78515625	-404.3822937011719	898.6936645507812	1440.731323242188	-97.92868041992188	818.13916015625	1009.175048828125	-414.3186950683594	837.7682495117188	979.4263305664062	-112.6515884399414	877.017822265625	959.5616455078124	-397.9761352539062	659.395263671875	312.8359375	-322.907958984375	893.6767578125	932.3863525390624	-139.8695220947266	762.8232421875	880.7244873046875	-429.66650390625	741.1118774414062	884.6668701171875	-112.7974700927734	737.3170166015625	1036.05859375	-253.9024810791016	983.0508422851562	714.1739501953125	-429.8512573242188	820.7022705078125	427.8741760253906	-411.4715270996094	910.4669189453124	672.6737060546875	-438.207275390625	1031.48291015625	624.6007690429688	-411.0770568847656	562.74951171875	64.32211303710938	-149.4893341064453	896.8486938476562	491.7401733398438	-423.9894104003906	956.149658203125	584.810546875	-414.9458312988281	826.1405029296875	620.12158203125	-120.9272842407227	832.5115356445312	137.2790069580078	-360.7347717285156	749.6740112304688	636.7432861328125	-115.1426391601562	801.8483276367188	523.6573486328125	-145.7269897460938	724.9150390625	544.345947265625	-134.7135925292969	1005.997985839844	549.7640991210938	-412.9968872070312	739.2421875	491.3174743652344	-134.6858215332031	947.4514770507812	432.3207092285156	-412.8724060058594	871.22119140625	368.0223083496094	-404.3262939453125	704.756103515625	370.8861389160156	-138.8674774169922	775.3759765625	164.1730804443359	-413.6357116699219	640.1749267578125	416.0890197753906	-122.986686706543	647.6259765625	284.63671875	-300.5678100585938	645.5114135742188	287.9397277832031	-149.7367858886719	582.8365478515625	335.2398681640625	-135.807373046875	711.8938598632812	282.7171630859375	-385.6266479492188	500.4009704589844	161.0013122558594	-173.2772674560547	629.2149658203125	51.10000610351562	-213.7862548828125	428.6810913085938	175.0134887695312	-230.2664489746094	431.492431640625	142.0852813720703	-259.1178894042969	415.0848693847656	149.2107391357422	-206.9435424804688	637.3724975585938	288.4175415039062	-353.4952697753906
205	1.02	856.3179321289062	1475.53515625	-404.0816650390625	915.1493530273438	1445.638427734375	-98.81505584716795	835.2403564453125	1015.259338378906	-414.4063110351562	856.1049194335938	983.8638305664062	-114.0634460449219	893.7734375	965.1508178710938	-398.4869995117188	686.2769165039062	302.7594909667969	-322.9524841308594	911.4609985351562	936.7607421875	-141.0198364257812	780.5274047851562	886.53515625	-430.8004455566406	758.2301025390625	890.2918701171875	-112.9695510864258	754.8038940429688	1041.140747070312	-253.3427276611328	1001.50927734375	720.0652465820312	-429.5138244628906	842.4389038085938	424.181640625	-411.7157592773438	929.2967529296876	678.41552734375	-438.4428405761719	1049.499267578125	630.3956909179688	-409.2026062011719	565.9528198242188	65.30746459960938	-148.5266571044922	915.9874877929688	491.227783203125	-424.1993103027344	974.3599853515624	590.8099365234375	-415.3877258300781	838.285888671875	624.6104125976562	-120.5939483642578	867.4657592773438	135.1654968261719	-360.3687438964844	762.1621704101562	643.1705932617188	-114.0959014892578	811.881103515625	528.3159790039062	-144.2088928222656	735.2994995117188	550.7079467773438	-133.3158416748047	1023.694396972656	554.836669921875	-412.2853393554688	747.99072265625	498.5679321289062	-133.1882019042969	969.1229248046876	434.5457153320312	-412.4214172363281	895.774169921875	366.5773010253906	-403.7878112792969	712.1217041015625	377.7605590820312	-136.7902069091797	808.876708984375	159.065673828125	-413.0380859375	647.8270874023438	423.2861328125	-120.5753707885742	675.1393432617188	273.847900390625	-300.7998962402344	653.6383666992188	294.8510437011719	-146.8728485107422	590.7940063476562	342.110107421875	-134.0622711181641	739.9866333007812	274.7732543945312	-385.351806640625	508.1742553710938	166.8675842285156	-171.0589141845703	632.135009765625	50.9171028137207	-212.8587493896484	437.856689453125	184.3451995849609	-228.4612579345703	439.4245910644531	152.0001983642578	-257.8736572265625	422.8859252929688	158.382080078125	-205.5832366943359	665.1675415039062	276.80224609375	-353.5167236328125
206	1.025	870.9551391601562	1480.951293945312	-403.8206176757812	932.0629272460938	1450.843017578125	-99.81378173828124	851.9588623046875	1020.796752929688	-414.7804260253906	874.220703125	988.6011352539062	-114.7419281005859	910.5165405273438	970.3220825195312	-399.0088500976562	713.6433715820312	292.0625610351562	-322.8984680175781	929.3433837890624	941.3648681640624	-141.8353576660156	797.8616943359375	892.3115234375	-431.6292724609375	775.7723999023438	896.2249145507812	-113.0872268676758	772.1893310546875	1045.753540039062	-253.0182037353516	1020.07470703125	725.5692749023438	-428.5387573242188	865.131591796875	420.3493041992188	-411.8753662109375	947.58154296875	684.38818359375	-438.7540588378906	1067.44287109375	635.87744140625	-408.4646606445312	569.2354125976562	67.16326904296875	-146.9308013916016	935.2518310546876	490.7713317871094	-424.8180541992188	992.3175659179688	596.5209350585938	-415.7228393554688	850.5125122070312	629.23388671875	-119.1797561645508	902.86181640625	133.3552093505859	-360.1767272949219	774.7987060546875	649.3213500976562	-112.9344024658203	821.739501953125	533.4464111328125	-143.2587127685547	745.7696533203125	557.4292602539062	-132.0478210449219	1041.149658203125	559.409912109375	-412.1978149414062	756.9767456054688	504.7000427246094	-131.9345092773438	990.7648315429688	436.4911804199219	-412.1111145019531	920.6813354492188	365.4065246582031	-403.7265319824219	720.2578125	385.0865783691406	-134.6074066162109	842.5904541015625	154.2919769287109	-412.8218078613281	655.3434448242188	430.0586853027344	-119.3242568969727	703.9521484375	262.4762268066406	-300.5654296875	661.9661865234375	301.8488159179688	-143.93701171875	598.7848510742188	348.6934204101562	-132.0556945800781	768.502685546875	266.7760925292969	-385.3185119628906	516.7435302734375	172.5642852783203	-168.818603515625	634.978271484375	50.6453857421875	-211.7606811523438	450.5995178222656	194.5464324951172	-226.3709869384766	448.0928039550781	161.4634857177734	-256.5473937988281	431.8401184082031	168.3761444091797	-204.1148681640625	693.7047729492188	265.58740234375	-353.1471252441406
207	1.03	885.4420776367188	1485.563720703125	-403.4863891601562	948.7155151367188	1455.523559570312	-100.5908889770508	868.8278198242188	1026.38134765625	-414.6877746582031	892.3290405273438	993.1345825195312	-115.4729995727539	927.1619873046876	975.5532836914062	-399.4638671875	741.2789306640625	281.4643249511719	-322.286865234375	947.2472534179688	945.7913818359376	-143.0254669189453	814.942138671875	897.9801025390625	-432.402099609375	793.1464233398438	901.7044677734376	-112.8796081542969	789.4097290039062	1050.60302734375	-253.0357055664062	1038.225830078125	730.3651123046875	-427.7100830078125	886.9353637695312	416.4598388671875	-412.2027282714844	965.7826538085938	689.9090576171875	-439.2709045410156	1085.092529296875	640.846923828125	-407.5885620117188	572.7399291992188	68.73174285888672	-145.8520355224609	954.0809936523438	489.5359497070312	-425.462158203125	1009.956970214844	601.5425415039062	-415.7037048339844	862.8399658203125	634.1616821289062	-118.5592498779297	937.7999877929688	131.9706726074219	-360.1077880859375	787.3182983398438	655.7164916992188	-111.9359283447266	831.970458984375	538.8251953125	-141.4763946533203	756.4135131835938	564.7464599609375	-130.9958953857422	1058.146240234375	563.5775146484375	-411.9057006835938	766.0794067382812	511.0180358886719	-130.6995239257812	1011.951354980469	438.3478698730469	-412.3329467773438	944.9126586914062	363.8412780761719	-403.2676086425781	728.6031494140625	392.4818420410156	-132.2401733398438	876.21728515625	149.8103332519531	-412.4301452636719	663.12158203125	437.3997802734375	-117.830680847168	732.7955322265625	251.4633483886719	-299.6175537109375	669.8978881835938	308.055419921875	-142.0339508056641	607.1342163085938	355.7896118164062	-130.3482666015625	797.4833374023438	258.2467041015625	-384.5438842773438	525.4522705078125	178.2247161865234	-166.6837921142578	638.1514282226562	50.10633087158203	-210.5778350830078	462.0827026367188	203.7157897949219	-224.2039184570312	457.5157470703125	171.3942413330078	-254.7785034179688	441.6060485839844	178.5347900390625	-202.2436981201172	722.6978759765625	253.6542816162109	-352.1725769042969
